<svg xmlns="http://www.w3.org/2000/svg" width="126" height="50" viewBox="0 0 126 50" fill="none"><path d="M0.599554 2.16942C3.38147 2.26189 5.0123 4.69439 6.98861 7.67195C8.64224 10.1628 10.4623 11.8013 12.6972 11.9578C15.1171 12.1273 17.1585 10.6455 18.9714 7.97125C20.7729 5.3092 22.3066 2.59525 24.8103 2.21971C27.5095 1.81496 29.433 3.76323 31.3586 6.75702C33.0091 9.32254 34.6628 11.4079 36.9369 11.8605C39.2555 12.3212 41.4717 11.2976 43.3115 8.83994C45.1266 6.41636 46.5524 3.27333 48.9195 2.42978C51.6356 1.46051 53.9353 3.0957 55.925 6.14626C57.4724 8.51793 58.9727 10.8758 61.0689 11.6358C63.4519 12.4996 65.9513 11.7461 67.9307 9.28361C69.6317 7.16825 70.9516 4.10715 72.9827 2.85886C75.5816 1.25936 78.325 2.41032 80.3882 5.39599C81.9817 7.70034 83.3657 10.2951 85.4204 11.3673C87.6358 12.5248 90.219 12.0973 92.2149 10.0582C94.0628 8.16916 95.3502 4.97422 97.2924 3.33254C100.043 1.00711 103.205 2.22863 105.451 5.54442C107.257 8.20971 108.867 11.0161 111.316 11.7388C113.9 12.5013 116.374 11.3706 118.404 8.55687C120.666 5.42276 122.263 2.27324 125.4 2.16942C126.199 2.14428 126.201 0.00620331 125.4 0.0329698C122.993 0.110836 121.092 1.63328 119.308 4.33101C117.49 7.08228 115.856 9.63238 113.3 9.81975C110.48 10.0258 108.714 7.68087 106.725 4.63437C105.109 2.15563 103.388 0.378499 101.185 0.0808234C98.8657 -0.229018 96.754 0.946273 94.9512 3.4461C93.1278 5.97512 91.6751 9.00784 89.2284 9.677C86.4991 10.4265 84.321 8.60472 82.3501 5.55091C80.6788 2.96349 79.048 0.706186 76.7408 0.18059C74.4294 -0.345005 72.1834 0.572354 70.326 2.99593C68.642 5.19159 67.2938 8.20809 65.2005 9.30632C62.459 10.7436 59.8644 9.29416 57.7823 6.15843C56.2406 3.83624 54.8001 1.39482 52.7524 0.492056C50.4575 -0.521013 47.8968 0.06298 45.9123 2.32109C44.1647 4.31154 42.8761 7.40996 40.9236 8.87968C38.4478 10.742 35.516 9.88708 33.4311 7.04497C31.7764 4.78685 30.4362 2.02748 28.3812 0.797031C25.9158 -0.67999 22.9995 -0.0903157 20.8433 2.45087C18.8598 4.78929 17.4171 8.37679 14.9858 9.44907C11.9267 10.8004 9.48302 8.6761 7.27816 5.24513C5.29362 2.15725 3.35768 0.123813 0.599554 0.0329698C-0.199851 0.00620331 -0.199851 2.14428 0.599554 2.16942Z" fill="#FD4621"></path><path d="M0.599554 20.1707C3.38147 20.2615 5.0123 22.6964 6.98861 25.6716C8.64224 28.1624 10.4623 29.8025 12.6972 29.9574C15.1171 30.1269 17.1585 28.6475 18.9714 25.9708C20.7729 23.3088 22.3066 20.5949 24.8103 20.2193C27.5095 19.8146 29.433 21.7629 31.3586 24.7566C33.0091 27.3221 34.6628 29.4075 36.9369 29.8601C39.2555 30.3208 41.4717 29.2972 43.3115 26.8395C45.1266 24.416 46.5524 21.2729 48.9195 20.4294C51.6356 19.4601 53.9353 21.0969 55.925 24.1459C57.4724 26.5175 58.9727 28.8754 61.0689 29.6354C63.4519 30.4992 65.9513 29.7457 67.9307 27.2832C69.6317 25.1679 70.9516 22.1068 72.9827 20.8585C75.5816 19.259 78.325 20.4099 80.3882 23.3956C81.9817 25.6999 83.3657 28.2947 85.4204 29.3685C87.6358 30.5244 90.219 30.0969 92.2149 28.0578C94.0628 26.1688 95.3502 22.9738 97.2924 21.3322C100.043 19.0067 103.205 20.2283 105.451 23.544C107.257 26.2093 108.867 29.0173 111.316 29.7408C113.9 30.5025 116.374 29.3702 118.404 26.5565C120.666 23.4224 122.263 20.2745 125.4 20.1707C126.199 20.1439 126.201 18.0058 125.4 18.0326C122.993 18.1105 121.092 19.6329 119.308 22.3306C117.49 25.0819 115.856 27.632 113.3 27.8193C110.48 28.0254 108.714 25.6821 106.725 22.634C105.109 20.1569 103.388 18.3781 101.185 18.0821C98.8657 17.7706 96.754 18.9459 94.9512 21.4457C93.1278 23.9747 91.6751 27.0074 89.2284 27.6766C86.4991 28.426 84.321 26.6043 82.3501 23.5505C80.6788 20.9631 79.048 18.7058 76.7408 18.1802C74.4294 17.6546 72.1834 18.572 70.326 20.9956C68.642 23.1928 67.2938 26.2077 65.2005 27.3059C62.459 28.7448 59.8644 27.2954 57.7823 24.1597C56.2406 21.8375 54.8001 19.3944 52.7524 18.4917C50.4575 17.4786 47.8968 18.0626 45.9123 20.3223C44.1647 22.3136 42.8761 25.4096 40.9236 26.8793C38.4478 28.7432 35.516 27.8883 33.4311 25.0446C31.7764 22.7889 30.4362 20.0271 28.3812 18.7967C25.9158 17.3205 22.9995 17.9093 20.8433 20.4505C18.8598 22.7905 17.4171 26.3764 14.9858 27.4487C11.9267 28.8 9.48302 26.6757 7.27816 23.2464C5.29362 20.1569 3.35768 18.1235 0.599554 18.0326C-0.199851 18.0058 -0.199851 20.1439 0.599554 20.1707Z" fill="#FD4621"></path><path d="M0.599554 40.1705C3.38147 40.2614 5.0123 42.6962 6.98861 45.6711C8.64224 48.1626 10.4623 49.8026 12.6972 49.9575C15.1171 50.1262 17.1585 48.6468 18.9714 45.9704C20.7729 43.3101 22.3066 40.5963 24.8103 40.2208C27.5095 39.8169 29.433 41.7626 31.3586 44.7579C33.0091 47.3216 34.6628 49.4084 36.9369 49.861C39.2555 50.32 41.4717 49.2981 43.3115 46.8414C45.1266 44.4156 46.5524 41.2728 48.9195 40.4293C51.6356 39.4601 53.9353 41.0968 55.925 44.1471C57.4724 46.517 58.9727 48.8764 61.0689 49.6347C63.4519 50.4985 65.9513 49.745 67.9307 47.2827C69.6317 45.1691 70.9516 42.1082 72.9827 40.8583C75.5816 39.2614 78.325 40.4098 80.3882 43.3953C81.9817 45.7011 83.3657 48.294 85.4204 49.3679C87.6358 50.5252 90.219 50.0962 92.2149 48.0572C94.0628 46.1683 95.3502 42.9752 97.2924 41.3336C100.043 39.0067 103.205 40.2297 105.451 43.5437C107.257 46.2088 108.867 49.0167 111.316 49.7401C113.9 50.5017 116.374 49.3695 118.404 46.556C120.666 43.422 122.263 40.2744 125.4 40.1705C126.199 40.1446 126.201 38.0058 125.4 38.0326C122.993 38.1105 121.092 39.6328 119.308 42.3304C117.49 45.0815 115.856 47.6314 113.3 47.8188C110.48 48.0248 108.714 45.6816 106.725 42.6337C105.109 40.1568 103.388 38.3781 101.185 38.0821C98.8657 37.7706 96.754 38.9459 94.9512 41.4455C93.1278 43.976 91.6751 47.0069 89.2284 47.6776C86.4991 48.4254 84.321 46.6046 82.3501 43.5526C80.6788 40.9629 79.048 38.7058 76.7408 38.1802C74.4294 37.6547 72.1834 38.572 70.326 40.9954C68.642 43.1925 67.2938 46.2072 65.2005 47.3062C62.459 48.7442 59.8644 47.2948 57.7823 44.1593C56.2406 41.8373 54.8001 39.396 52.7524 38.4917C50.4575 37.4787 47.8968 38.0642 45.9123 40.3222C44.1647 42.3133 42.8761 45.4091 40.9236 46.8804C38.4478 48.7425 35.516 47.8877 33.4311 45.0442C31.7764 42.7886 30.4362 40.027 28.3812 38.7966C25.9158 37.3205 22.9995 37.9093 20.8433 40.4504C18.8598 42.7902 17.4171 46.3767 14.9858 47.4497C11.9267 48.7993 9.48302 46.6752 7.27816 43.2461C5.29362 40.1568 3.35768 38.1234 0.599554 38.0326C-0.199851 38.0058 -0.199851 40.1446 0.599554 40.1705Z" fill="#FD4621"></path></svg>